<svg width="16" height="17" viewBox="0 0 16 17" fill="none" xmlns="http://www.w3.org/2000/svg">
<path d="M7.98373 1.95158C9.27565 1.95158 10.5386 2.33468 11.6128 3.05244C12.687 3.77019 13.5242 4.79037 14.0186 5.98395C14.513 7.17754 14.6424 8.49092 14.3903 9.75802C14.1383 11.0251 13.5161 12.189 12.6026 13.1026C11.6891 14.0161 10.5252 14.6382 9.25807 14.8903C7.99097 15.1423 6.67759 15.0129 5.484 14.5185C4.29042 14.0241 3.27025 13.1869 2.55249 12.1127C1.83473 11.0385 1.45163 9.7756 1.45163 8.48368C1.45832 6.75332 2.14867 5.09574 3.37223 3.87218C4.59579 2.64862 6.25337 1.95827 7.98373 1.95158ZM7.98373 0.500006C6.40611 0.50646 4.86578 0.980174 3.55717 1.86134C2.24857 2.74252 1.23037 3.99164 0.631106 5.45102C0.031846 6.9104 -0.121605 8.51461 0.190125 10.0611C0.501855 11.6077 1.26479 13.0272 2.38262 14.1404C3.50044 15.2537 4.92304 16.0108 6.47082 16.3162C8.01861 16.6217 9.62218 16.4617 11.0791 15.8564C12.536 15.2512 13.781 14.2279 14.6568 12.9158C15.5326 11.6036 16 10.0613 16.0001 8.48368C16.0001 7.43249 15.7925 6.39165 15.3892 5.42089C14.986 4.45014 14.395 3.56857 13.6502 2.82679C12.9053 2.08501 12.0214 1.49762 11.049 1.09833C10.0766 0.699035 9.0349 0.495705 7.98373 0.500006Z" fill="#F2F2F2"/>
<path d="M11.707 7.88127H8.4954V4.66966H7.41397V7.88127H4.19873V8.9627H7.41397V12.1743H8.4954V8.9627H11.707V7.88127Z" fill="#F2F2F2"/>
</svg>
