<svg width="183" height="48" viewBox="0 0 183 48" fill="none" xmlns="http://www.w3.org/2000/svg">
<path d="M43.8295 26.7273V39H35.9886V17.1818H43.4318V21.3295H43.6591C44.1326 19.947 44.9659 18.8627 46.1591 18.0767C47.3617 17.2907 48.7633 16.8977 50.3636 16.8977C51.9072 16.8977 53.2472 17.2528 54.3835 17.9631C55.5294 18.6638 56.4148 19.6297 57.0398 20.8608C57.6742 22.0919 57.9867 23.4981 57.9773 25.0795V39H50.1364V26.7273C50.1458 25.6477 49.8712 24.8002 49.3125 24.1847C48.7633 23.5691 47.9962 23.2614 47.0114 23.2614C46.3674 23.2614 45.804 23.4034 45.321 23.6875C44.8475 23.9621 44.483 24.3598 44.2273 24.8807C43.9716 25.392 43.839 26.0076 43.8295 26.7273ZM72.3594 39.3977C69.992 39.3977 67.9654 38.929 66.2798 37.9915C64.5942 37.0445 63.3016 35.7282 62.402 34.0426C61.5024 32.3475 61.0526 30.3826 61.0526 28.1477C61.0526 25.9129 61.5024 23.9527 62.402 22.267C63.3016 20.572 64.5942 19.2557 66.2798 18.3182C67.9654 17.3712 69.992 16.8977 72.3594 16.8977C74.7268 16.8977 76.7533 17.3712 78.4389 18.3182C80.1245 19.2557 81.4171 20.572 82.3168 22.267C83.2164 23.9527 83.6662 25.9129 83.6662 28.1477C83.6662 30.3826 83.2164 32.3475 82.3168 34.0426C81.4171 35.7282 80.1245 37.0445 78.4389 37.9915C76.7533 38.929 74.7268 39.3977 72.3594 39.3977ZM72.4162 33.6023C73.0791 33.6023 73.652 33.3797 74.1349 32.9347C74.6179 32.4896 74.992 31.8551 75.2571 31.0312C75.5223 30.2074 75.6548 29.2273 75.6548 28.0909C75.6548 26.9451 75.5223 25.965 75.2571 25.1506C74.992 24.3267 74.6179 23.6922 74.1349 23.2472C73.652 22.8021 73.0791 22.5795 72.4162 22.5795C71.7154 22.5795 71.1141 22.8021 70.6122 23.2472C70.1103 23.6922 69.7268 24.3267 69.4616 25.1506C69.1965 25.965 69.0639 26.9451 69.0639 28.0909C69.0639 29.2273 69.1965 30.2074 69.4616 31.0312C69.7268 31.8551 70.1103 32.4896 70.6122 32.9347C71.1141 33.3797 71.7154 33.6023 72.4162 33.6023ZM108.173 17.1818L100.843 39H91.7521L84.4226 17.1818H92.6612L96.1839 31.6136H96.4112L99.9339 17.1818H108.173ZM115.935 39.3409C114.543 39.3409 113.312 39.1136 112.242 38.6591C111.182 38.1951 110.348 37.4943 109.742 36.5568C109.136 35.6193 108.833 34.4261 108.833 32.9773C108.833 31.7841 109.037 30.7661 109.444 29.9233C109.851 29.071 110.419 28.375 111.148 27.8352C111.878 27.2955 112.725 26.8835 113.691 26.5994C114.666 26.3153 115.718 26.1307 116.844 26.0455C118.066 25.9508 119.046 25.8371 119.785 25.7045C120.533 25.5625 121.073 25.3684 121.404 25.1222C121.736 24.8665 121.901 24.5303 121.901 24.1136V24.0568C121.901 23.4886 121.683 23.053 121.248 22.75C120.812 22.447 120.254 22.2955 119.572 22.2955C118.824 22.2955 118.213 22.4612 117.739 22.7926C117.275 23.1146 116.996 23.6117 116.901 24.2841H109.685C109.78 22.9583 110.201 21.7367 110.95 20.6193C111.707 19.4924 112.81 18.5928 114.259 17.9205C115.708 17.2386 117.517 16.8977 119.685 16.8977C121.248 16.8977 122.649 17.0824 123.89 17.4517C125.13 17.8116 126.186 18.3182 127.058 18.9716C127.929 19.6155 128.592 20.3731 129.046 21.2443C129.51 22.1061 129.742 23.0436 129.742 24.0568V39H122.413V35.9318H122.242C121.807 36.7462 121.276 37.4044 120.651 37.9062C120.036 38.4081 119.33 38.7727 118.535 39C117.749 39.2273 116.882 39.3409 115.935 39.3409ZM118.492 34.3977C119.089 34.3977 119.647 34.2746 120.168 34.0284C120.699 33.7822 121.129 33.4271 121.461 32.9631C121.792 32.4991 121.958 31.9356 121.958 31.2727V29.4545C121.75 29.5398 121.527 29.6203 121.29 29.696C121.063 29.7718 120.817 29.8428 120.552 29.9091C120.296 29.9754 120.022 30.0369 119.728 30.0938C119.444 30.1506 119.146 30.2027 118.833 30.25C118.227 30.3447 117.73 30.5009 117.342 30.7188C116.963 30.9271 116.679 31.1875 116.489 31.5C116.309 31.803 116.219 32.1439 116.219 32.5227C116.219 33.1288 116.433 33.5928 116.859 33.9148C117.285 34.2367 117.829 34.3977 118.492 34.3977Z" fill="#4EA8DE"/>
<path d="M141.386 39.2841C139.833 39.2841 138.403 38.8769 137.097 38.0625C135.799 37.2481 134.758 36.0123 133.972 34.3551C133.195 32.6979 132.807 30.6098 132.807 28.0909C132.807 25.4583 133.214 23.3182 134.028 21.6705C134.852 20.0227 135.913 18.8153 137.21 18.0483C138.517 17.2812 139.89 16.8977 141.33 16.8977C142.409 16.8977 143.356 17.0871 144.17 17.4659C144.985 17.8352 145.667 18.3324 146.216 18.9574C146.765 19.5729 147.182 20.25 147.466 20.9886H147.58V9.90909H155.42V39H147.636V35.4205H147.466C147.163 36.1591 146.727 36.822 146.159 37.4091C145.6 37.9867 144.919 38.446 144.114 38.7869C143.318 39.1184 142.409 39.2841 141.386 39.2841ZM144.284 33.2614C145.004 33.2614 145.619 33.053 146.131 32.6364C146.652 32.2102 147.049 31.6136 147.324 30.8466C147.608 30.0701 147.75 29.1515 147.75 28.0909C147.75 27.0114 147.608 26.0881 147.324 25.321C147.049 24.5445 146.652 23.9527 146.131 23.5455C145.619 23.1288 145.004 22.9205 144.284 22.9205C143.564 22.9205 142.949 23.1288 142.438 23.5455C141.936 23.9527 141.547 24.5445 141.273 25.321C141.008 26.0881 140.875 27.0114 140.875 28.0909C140.875 29.1705 141.008 30.0985 141.273 30.875C141.547 31.642 141.936 32.2339 142.438 32.6506C142.949 33.0578 143.564 33.2614 144.284 33.2614ZM169.781 39.3977C167.414 39.3977 165.387 38.929 163.702 37.9915C162.016 37.0445 160.723 35.7282 159.824 34.0426C158.924 32.3475 158.474 30.3826 158.474 28.1477C158.474 25.9129 158.924 23.9527 159.824 22.267C160.723 20.572 162.016 19.2557 163.702 18.3182C165.387 17.3712 167.414 16.8977 169.781 16.8977C172.149 16.8977 174.175 17.3712 175.861 18.3182C177.546 19.2557 178.839 20.572 179.739 22.267C180.638 23.9527 181.088 25.9129 181.088 28.1477C181.088 30.3826 180.638 32.3475 179.739 34.0426C178.839 35.7282 177.546 37.0445 175.861 37.9915C174.175 38.929 172.149 39.3977 169.781 39.3977ZM169.838 33.6023C170.501 33.6023 171.074 33.3797 171.557 32.9347C172.04 32.4896 172.414 31.8551 172.679 31.0312C172.944 30.2074 173.077 29.2273 173.077 28.0909C173.077 26.9451 172.944 25.965 172.679 25.1506C172.414 24.3267 172.04 23.6922 171.557 23.2472C171.074 22.8021 170.501 22.5795 169.838 22.5795C169.137 22.5795 168.536 22.8021 168.034 23.2472C167.532 23.6922 167.149 24.3267 166.884 25.1506C166.618 25.965 166.486 26.9451 166.486 28.0909C166.486 29.2273 166.618 30.2074 166.884 31.0312C167.149 31.8551 167.532 32.4896 168.034 32.9347C168.536 33.3797 169.137 33.6023 169.838 33.6023Z" fill="#5E60CE"/>
<g clip-path="url(#clip0_43_109)">
<path d="M11.0215 12.933C14.1472 16.9011 15.8158 21.7944 15.7553 26.8155V28.0141L16.7865 28.6416C18.119 29.4482 19.1127 30.6993 19.5866 32.1669C19.1705 31.8605 18.7352 31.5803 18.2833 31.3278L15.5333 29.7838L15.0391 32.9001C14.9963 33.1755 14.9389 33.4485 14.8672 33.718H7.16151C7.04692 33.3655 6.95382 33.0129 6.86789 32.6463L6.24484 29.8261L3.70968 31.2362C3.28615 31.473 2.87723 31.7344 2.48507 32.0188C2.96824 30.5682 3.94123 29.3242 5.24224 28.4935L6.22336 27.866V26.7521C6.24106 21.7513 7.92967 16.8952 11.0287 12.933H11.0215ZM11.0287 10C10.868 10.0004 10.7128 10.058 10.5918 10.1622L10.5274 10.2186C6.39778 14.7656 4.10466 20.6454 4.08208 26.745C2.32967 27.8643 1.03251 29.5543 0.417263 31.5197C-0.197979 33.485 -0.0921719 35.6007 0.716194 37.4971C1.56776 35.6455 2.99131 34.1058 4.7839 33.0975C4.96368 33.8642 5.2031 34.6161 5.50005 35.3467C5.53771 35.4871 5.62118 35.6114 5.73763 35.7006C5.85408 35.7898 5.99706 35.8388 6.14458 35.8402H16.0847C16.2852 35.8402 16.4857 35.6498 16.586 35.3537C16.8758 34.6592 17.0778 33.9322 17.1875 33.1892C18.9836 34.1932 20.4083 35.7342 21.2553 37.5887C22.1124 35.7017 22.2451 33.5727 21.6287 31.5967C21.0124 29.6206 19.6888 27.9319 17.9037 26.8437C17.9745 20.7082 15.6935 14.7718 11.5157 10.2186C11.4535 10.1501 11.3773 10.0952 11.2922 10.0576C11.2071 10.0199 11.1149 10.0003 11.0215 10H11.0287Z" fill="#4EA8DE"/>
<path d="M11.0216 26.1598C10.4715 26.1598 9.93376 25.9995 9.47611 25.699C9.01846 25.3986 8.6614 24.9715 8.44993 24.4716C8.23847 23.9716 8.18206 23.4213 8.28782 22.8898C8.39358 22.3584 8.65678 21.8697 9.04423 21.4853C9.43169 21.1009 9.92606 20.838 10.465 20.7298C11.004 20.6216 11.5634 20.6729 12.0728 20.8773C12.5822 21.0816 13.0188 21.4298 13.3275 21.8781C13.6361 22.3263 13.8031 22.8545 13.8074 23.396C13.8159 23.7469 13.7542 24.0961 13.6256 24.4235C13.4971 24.751 13.3043 25.0503 13.0582 25.3043C12.8121 25.5583 12.5176 25.7622 12.1915 25.9041C11.8654 26.0461 11.5141 26.1234 11.1576 26.1316C11.1126 26.1387 11.0666 26.1387 11.0216 26.1316V26.1598Z" fill="#4EA8DE"/>
<path d="M14.8959 37.5958C14.7167 37.5901 14.5382 37.6198 14.3708 37.683C14.2034 37.7462 14.0505 37.8416 13.9211 37.9638C13.7917 38.086 13.6884 38.2323 13.6172 38.3943C13.546 38.5563 13.5084 38.7307 13.5066 38.9072V43.067C13.5066 43.4297 13.653 43.7776 13.9135 44.0342C14.1741 44.2907 14.5274 44.4348 14.8959 44.4348C15.2644 44.4348 15.6178 44.2907 15.8783 44.0342C16.1389 43.7776 16.2852 43.4297 16.2852 43.067V38.9636C16.291 38.7877 16.2611 38.6126 16.1973 38.4482C16.1336 38.2839 16.0372 38.1337 15.9139 38.0064C15.7906 37.879 15.6428 37.7772 15.4791 37.7067C15.3154 37.6362 15.139 37.5985 14.9604 37.5958H14.8959Z" fill="#5E60CE"/>
<path d="M7.16154 37.5958C6.97931 37.5863 6.797 37.613 6.62546 37.6743C6.45392 37.7356 6.29665 37.8302 6.16302 37.9526C6.02939 38.0749 5.92213 38.2225 5.84761 38.3865C5.77309 38.5505 5.73284 38.7275 5.72925 38.9072V43.067C5.72925 43.4297 5.87562 43.7777 6.13617 44.0342C6.39672 44.2907 6.7501 44.4348 7.11857 44.4348C7.48704 44.4348 7.84042 44.2907 8.10097 44.0342C8.36152 43.7777 8.50789 43.4297 8.50789 43.067V38.9636C8.51362 38.7877 8.48373 38.6126 8.41998 38.4482C8.35623 38.2839 8.25989 38.1337 8.13658 38.0064C8.01326 37.879 7.86544 37.7772 7.70173 37.7067C7.53802 37.6362 7.36169 37.5985 7.18302 37.5958H7.16154Z" fill="#5E60CE"/>
<path d="M10.9213 37.5958C10.7426 37.592 10.5649 37.623 10.3984 37.6869C10.2318 37.7507 10.0797 37.8463 9.95068 37.9681C9.82167 38.0899 9.71828 38.2355 9.64644 38.3966C9.5746 38.5577 9.5357 38.7312 9.53198 38.9072V44.6392C9.53198 45.002 9.67836 45.3499 9.93891 45.6064C10.1995 45.8629 10.5528 46.007 10.9213 46.007C11.2898 46.007 11.6432 45.8629 11.9037 45.6064C12.1643 45.3499 12.3106 45.002 12.3106 44.6392V38.9988C12.3164 38.823 12.2865 38.6478 12.2227 38.4835C12.159 38.3191 12.0626 38.1689 11.9393 38.0416C11.816 37.9143 11.6682 37.8124 11.5045 37.7419C11.3408 37.6714 11.1644 37.6337 10.9858 37.631L10.9213 37.5958Z" fill="#5E60CE"/>
</g>
<defs>
<clipPath id="clip0_43_109">
<rect width="22" height="36" fill="white" transform="translate(0 10)"/>
</clipPath>
</defs>
</svg>
